<?xml version="1.0" encoding="UTF-8"?>
<svg id="Layer_2" data-name="Layer 2" xmlns="http://www.w3.org/2000/svg" viewBox="0 0 150 150">
  <defs>
    <style>
      .cls-1 {
        fill: #fdba74;
      }
    </style>
  </defs>
  <g id="Layer_1-2" data-name="Layer 1">
    <path class="cls-1" d="m75,0C33.58,0,0,33.58,0,75s33.58,75,75,75,75-33.58,75-75S116.42,0,75,0Zm18.65,105.53c-3.31,3.44-8.19,5.66-14.63,6.64v11.14h-8.05v-11.27c-5.1-.89-9.28-2.84-12.55-5.84-3.27-3-5.61-6.78-7.04-11.34l7.51-3.09c1.52,4.29,3.71,7.49,6.58,9.59,2.86,2.1,6.31,3.15,10.33,3.15,4.29,0,7.83-1.07,10.6-3.22,2.77-2.15,4.16-5.1,4.16-8.86s-1.23-6.98-3.69-9.12c-2.46-2.15-7.09-4.34-13.89-6.58-6.44-2.06-11.25-4.79-14.43-8.19-3.18-3.4-4.76-7.65-4.76-12.75s1.59-9.04,4.76-12.35c3.18-3.31,7.31-5.19,12.41-5.64v-11.14h8.05v11.14c4.03.45,7.49,1.77,10.4,3.96,2.91,2.19,5.12,4.99,6.64,8.39l-7.51,3.22c-1.25-2.86-2.93-4.94-5.03-6.24-2.1-1.3-4.85-1.95-8.25-1.95-4.12,0-7.38.94-9.8,2.82-2.42,1.88-3.62,4.43-3.62,7.65,0,3.4,1.34,6.15,4.03,8.25,2.68,2.1,7.65,4.27,14.89,6.51,6.08,1.88,10.58,4.58,13.49,8.12,2.91,3.53,4.36,7.98,4.36,13.35,0,5.64-1.65,10.18-4.96,13.62Z"/>
  </g>
</svg>